<svg width="90" height="93" viewBox="0 0 90 93" fill="none" xmlns="http://www.w3.org/2000/svg">
<circle cx="45" cy="46" r="45" fill="#007CED"/>
<path d="M62.512 22.8C63.5787 22.8 64.4747 23.184 65.2 23.952C65.968 24.6773 66.352 25.5733 66.352 26.64C66.352 27.7067 65.968 28.624 65.2 29.392C64.4747 30.1173 63.5787 30.48 62.512 30.48H49.52V71.056C49.52 72.1227 49.0933 73.04 48.24 73.808C47.4293 74.5333 46.4693 74.896 45.36 74.896C44.2507 74.896 43.2907 74.5333 42.48 73.808C41.6693 73.04 41.264 72.1227 41.264 71.056V30.48H28.208C27.1413 30.48 26.224 30.1173 25.456 29.392C24.7307 28.624 24.368 27.7067 24.368 26.64C24.368 25.5733 24.7307 24.6773 25.456 23.952C26.224 23.184 27.1413 22.8 28.208 22.8H62.512Z" fill="white"/>
</svg>
